# xmcd CD database file
#
# Track frame offsets:
#	150
#	13135
#	26450
#	37110
#	51955
#	65750
#	79030
#	92158
#	106068
#	120705
#
# Disc length: 1756 seconds
#
# Revision: 0
# Processed by: cddbd v1.5PL3 Copyright (c) Steve Scherf et al.
# Submitted via: CDex 1.50
#
DISCID=8006da0a
DTITLE=Rosemary Clooney and Tony Pastor - You Started Something
DYEAR=1900
DGENRE=Jazz
TTITLE0=You Started Something
TTITLE1=It's Like Taking Candy From A Baby
TTITLE2=It's A Cruel, Cruel World
TTITLE3=My O'Darlin' My O'Lovely My O'Brien
TTITLE4=I'm Sorry I Didn't Say I'm Sorry (When I Made You Cry Last Night)
TTITLE5=When You're In Love
TTITLE6=If I Had A Million Dollars
TTITLE7=Grieving For You
TTITLE8=At A Sidewalk Penny Arcade
TTITLE9=Sentimental Music
EXTD=
EXTT0=
EXTT1=
EXTT2=
EXTT3=
EXTT4=
EXTT5=
EXTT6=
EXTT7=
EXTT8=
EXTT9=
PLAYORDER=
